<svg version="1.1" id="Warstwa_1" xmlns="http://www.w3.org/2000/svg" x="0" y="0" viewBox="0 0 249.28 85.89" xml:space="preserve"><style>.st1{fill:#fff}.st2{fill:#31a3c3}</style><path class="st1" d="M73.48 62.01c0 8.86-6.79 12.74-13.14 12.74-7.17 0-12.7-4.73-12.7-12.32 0-8.01 5.81-12.69 13.12-12.69 7.59 0 12.72 4.99 12.72 12.27zm-20.95.28c0 5.25 3.32 9.2 8.01 9.2 4.61 0 8.05-3.9 8.05-9.33 0-4.05-2.25-9.17-7.96-9.17-5.65.01-8.1 4.76-8.1 9.3zm28.9-12.01l3.55 12.14c.76 2.67 1.43 5.17 1.96 7.63h.13c.59-2.41 1.46-5.01 2.37-7.6l4.32-12.18h4.04l4.11 11.96c.94 2.84 1.72 5.37 2.33 7.81h.13c.48-2.42 1.19-4.94 2.05-7.77l3.77-12h4.74L106.4 74.2h-4.36l-4.02-11.42c-.96-2.68-1.7-5.08-2.34-7.89h-.11c-.67 2.89-1.49 5.37-2.42 7.93L88.9 74.2h-4.39l-7.96-23.92h4.88zm41.02 12.75c.09 5.88 4.22 8.31 9.04 8.31 3.44 0 5.54-.56 7.32-1.23l.84 3.09c-1.68.7-4.62 1.53-8.81 1.53-8.12 0-13-4.9-13-12.07 0-7.25 4.72-12.91 12.43-12.91 8.62 0 10.87 6.85 10.87 11.25 0 .91-.06 1.57-.16 2.04h-18.53zm14.06-3.13c.05-2.74-1.24-7.04-6.63-7.04-4.9 0-6.99 4.02-7.38 7.04h14.01zm10.61-2.17c0-2.83-.08-5.23-.22-7.45h4.21l.18 4.69h.17c1.23-3.21 4.15-5.24 7.36-5.24.52 0 .9.03 1.34.12v4.09c-.49-.09-.97-.13-1.63-.13-3.39 0-5.78 2.31-6.43 5.57-.12.61-.19 1.32-.19 2.03V74.2h-4.78V57.73z" opacity=".92"/><path class="st1" d="M188.92 73.19c-1.69.81-5.17 1.64-9.6 1.64-10.23 0-17.9-6.13-17.9-17.42 0-10.79 7.68-18.04 18.95-18.04 4.48 0 7.38.9 8.61 1.51l-1.15 3.62c-1.76-.79-4.29-1.42-7.3-1.42-8.53 0-14.16 5.16-14.16 14.19 0 8.41 5.12 13.79 13.91 13.79 2.88 0 5.79-.55 7.69-1.41l.95 3.54zm11.55-30.55c0 1.53-1.13 2.79-3.01 2.79-1.71 0-2.86-1.26-2.86-2.79 0-1.54 1.21-2.79 2.95-2.79 1.76 0 2.91 1.22 2.92 2.79zm-5.29 31.65V49.62h4.71V74.3h-4.71zM214 42.51v7.1h6.81v3.4H214v13.3c0 3.07.93 4.81 3.58 4.81 1.23 0 2.12-.14 2.75-.33l.22 3.41c-.92.34-2.39.62-4.23.62-2.18 0-3.99-.68-5.11-1.9-1.31-1.36-1.84-3.54-1.84-6.44V53.02h-4.04v-3.4h4.04v-5.95l4.63-1.16zm14.4 7.11l5.69 14.58c.61 1.63 1.25 3.57 1.68 5.04h.13c.46-1.45 1.04-3.34 1.66-5.13l5.15-14.49h5.03l-7.13 17.58c-3.38 8.49-5.7 12.8-8.92 15.48-2.34 1.92-4.65 2.68-5.81 2.88l-1.18-3.75a12.8 12.8 0 004.15-2.19c1.28-.98 2.86-2.72 3.96-5 .24-.47.37-.8.37-1.08 0-.25-.08-.61-.33-1.15l-9.61-22.76h5.16z"/><path class="st2" d="M17.4 44.25h9.94l-8.01 29.91H9.4zM13.49.95h9.06L11.56 42.01H2.5"/><path class="st2" d="M74.69 21.52c0 4.25-1.29 8.21-3.51 11.48-3.69 5.45-9.92 9.04-17 9.04h-6.09l.23-.85L50.51 33h1.31c6.34 0 11.48-5.14 11.48-11.48 0-4.71-2.84-8.76-6.9-10.53-1.4-.61-2.95-.95-4.58-.95h-15.3l-.53 1.98-2.3 8.62L30.38 33h15.24l-1.68 6.3-.74 2.74-8.61 32.16h-9.73l8.61-32.16H18.03L20.45 33l6.15-22.96L29.02 1h25.17c1.63 0 3.21.19 4.73.56 5.08 1.19 9.43 4.28 12.26 8.48 2.22 3.27 3.51 7.23 3.51 11.48z"/></svg>