<svg version="1.1" id="Warstwa_1" xmlns="http://www.w3.org/2000/svg" x="0" y="0" viewBox="0 0 246.28 107.89" xml:space="preserve"><style>.st1{fill:#fff}.st2{fill:#31a3c3}</style><path class="st1" d="M71.48 61.92c0 8.86-6.79 12.74-13.14 12.74-7.17 0-12.7-4.73-12.7-12.32 0-8.01 5.81-12.69 13.12-12.69 7.59 0 12.72 4.99 12.72 12.27zm-20.95.28c0 5.25 3.32 9.2 8.01 9.2 4.61 0 8.05-3.9 8.05-9.33 0-4.05-2.25-9.17-7.96-9.17-5.65.01-8.1 4.77-8.1 9.3zm28.9-12.01l3.55 12.14c.76 2.67 1.43 5.17 1.96 7.63h.13c.59-2.41 1.46-5.01 2.37-7.6l4.32-12.18h4.04l4.11 11.96c.94 2.84 1.72 5.37 2.33 7.81h.13c.48-2.42 1.19-4.94 2.05-7.77l3.77-12h4.74L104.4 74.1h-4.36l-4.02-11.4c-.96-2.68-1.7-5.08-2.34-7.89h-.11c-.67 2.89-1.49 5.37-2.42 7.93L86.9 74.12h-4.39L74.55 50.2h4.88zm41.02 12.75c.09 5.88 4.22 8.31 9.04 8.31 3.44 0 5.54-.56 7.32-1.23l.84 3.09c-1.68.7-4.62 1.53-8.81 1.53-8.12 0-13-4.9-13-12.07 0-7.25 4.72-12.91 12.43-12.91 8.62 0 10.87 6.85 10.87 11.25 0 .91-.06 1.57-.16 2.04h-18.53zm14.06-3.13c.05-2.74-1.24-7.04-6.63-7.04-4.9 0-6.99 4.02-7.38 7.04h14.01zm10.61-2.17c0-2.83-.08-5.23-.22-7.45h4.21l.18 4.69h.17c1.23-3.21 4.15-5.24 7.36-5.24.52 0 .9.03 1.34.12v4.09c-.49-.09-.97-.13-1.63-.13-3.39 0-5.78 2.31-6.43 5.57-.12.61-.19 1.32-.19 2.03V74.1h-4.78V57.64z" opacity=".92"/><path class="st1" d="M186.92 73.1c-1.69.81-5.17 1.64-9.6 1.64-10.23 0-17.9-6.13-17.9-17.42 0-10.79 7.68-18.04 18.95-18.04 4.48 0 7.38.9 8.61 1.51l-1.15 3.62c-1.76-.79-4.29-1.42-7.3-1.42-8.53 0-14.16 5.16-14.16 14.19 0 8.41 5.12 13.79 13.91 13.79 2.88 0 5.79-.55 7.69-1.41l.95 3.54zm11.55-30.55c0 1.53-1.13 2.79-3.01 2.79-1.71 0-2.86-1.26-2.86-2.79 0-1.54 1.21-2.79 2.95-2.79 1.76 0 2.91 1.22 2.92 2.79zm-5.29 31.65V49.53h4.71V74.2h-4.71zM212 42.42v7.1h6.81v3.4H212v13.3c0 3.07.93 4.81 3.58 4.81 1.23 0 2.12-.14 2.75-.33l.22 3.41c-.92.34-2.39.62-4.23.62-2.18 0-3.99-.68-5.11-1.9-1.31-1.36-1.84-3.54-1.84-6.44V52.93h-4.04v-3.4h4.04v-5.94l4.63-1.17zm14.39 7.11l5.69 14.59c.61 1.63 1.25 3.57 1.68 5.04h.13c.46-1.45 1.04-3.34 1.66-5.13l5.15-14.49h5.03l-7.13 17.58c-3.38 8.49-5.7 12.8-8.92 15.48-2.34 1.92-4.65 2.68-5.81 2.88l-1.18-3.75a12.8 12.8 0 004.15-2.19c1.28-.98 2.86-2.72 3.96-5 .24-.47.37-.8.37-1.08 0-.25-.08-.61-.33-1.15l-9.61-22.76h5.16zM134.1 91.25c-.06.78-.1 1.67-.1 3v6.37c0 2.54-.55 4.06-1.65 5.02-1.14.99-2.76 1.32-4.22 1.32-1.4 0-2.92-.31-3.87-.9l.53-1.53c.77.46 1.96.88 3.41.88 2.15 0 3.73-1.07 3.73-3.84v-1.22h-.05c-.63 1.03-1.9 1.85-3.68 1.85-2.89 0-4.94-2.33-4.94-5.36 0-3.72 2.55-5.81 5.23-5.81 2.01 0 3.1.98 3.61 1.89h.05l.09-1.64h1.86zm-2.19 4.32c0-.33-.03-.62-.12-.89-.39-1.16-1.41-2.12-2.96-2.12-2.01 0-3.45 1.61-3.45 4.16 0 2.15 1.17 3.95 3.43 3.95 1.31 0 2.48-.78 2.93-2.06.11-.32.17-.71.17-1.06v-1.98zm6.27-4.32l2.53 6.48c.27.73.56 1.58.75 2.24h.06c.21-.65.46-1.49.74-2.28l2.29-6.44h2.23l-3.17 7.81c-1.5 3.77-2.53 5.69-3.97 6.88-1.04.85-2.07 1.19-2.58 1.28l-.52-1.67c.53-.16 1.21-.47 1.84-.97.57-.44 1.27-1.21 1.76-2.22.11-.21.16-.36.16-.48 0-.11-.03-.27-.15-.51l-4.27-10.11h2.3zm10.44 2.96c0-1.14-.04-2.05-.1-2.96h1.83l.11 1.77h.06c.64-1.04 1.72-2.01 3.65-2.01 1.57 0 2.77.9 3.26 2.2h.05c.37-.62.83-1.1 1.31-1.43.7-.5 1.46-.77 2.55-.77 1.55 0 3.82.94 3.82 4.76v6.46h-2.06v-6.2c0-2.12-.83-3.38-2.51-3.38-1.21 0-2.13.83-2.5 1.79-.1.29-.17.65-.17 1v6.79h-2.05v-6.58c0-1.75-.82-3-2.41-3-1.31 0-2.28.99-2.62 1.99-.1.29-.16.64-.16.98v6.61h-2.06v-8.02zm30.08 8.01c-.46-.44-.88-.87-1.51-1.49-1.4 1.21-2.94 1.74-4.71 1.74-3.13 0-4.96-2-4.96-4.29 0-2.08 1.32-3.5 3.15-4.46v-.07c-.83-.99-1.34-2.11-1.34-3.19 0-1.87 1.43-3.77 4.1-3.77 2.01 0 3.57 1.26 3.57 3.25 0 1.6-.99 2.87-3.54 4.08v.08c1.37 1.5 2.9 3.16 3.93 4.25.74-1.07 1.24-2.54 1.55-4.46h1.91c-.43 2.4-1.12 4.3-2.32 5.64.87.88 1.7 1.73 2.67 2.71h-2.5zm-2.55-2.63c-.96-.99-2.75-2.86-4.53-4.81-.88.53-2.08 1.49-2.08 3.1 0 1.76 1.35 3.09 3.29 3.09 1.4 0 2.55-.58 3.32-1.38zm-4.9-9.32c0 1.1.54 1.94 1.23 2.75 1.64-.88 2.68-1.7 2.68-2.99 0-.95-.56-1.98-1.88-1.98-1.33 0-2.03 1.05-2.03 2.22zm12.56 12.2v-9.46h-1.62V91.5h1.62v-.61c0-2.89 1.8-4.77 5.06-4.77 1.09 0 2.35.32 2.95.73l-.59 1.51c-.52-.33-1.42-.63-2.45-.63-2.22 0-2.88 1.48-2.88 3.24v.54h6.74v10.97h-2.1v-9.46h-4.63v9.46h-2.1zm14.77-14.12v3.16h3.03v1.51h-3.03v5.91c0 1.37.42 2.14 1.59 2.14.54 0 .94-.06 1.22-.14l.1 1.52c-.41.15-1.06.27-1.88.27-.97 0-1.77-.3-2.27-.84-.58-.6-.82-1.57-.82-2.86v-5.99h-1.79V91.5h1.79v-2.64l2.06-.51zm5.33 6.11c0-1.14-.04-2.05-.1-2.96h1.86l.12 1.8h.06c.57-1.03 1.92-2.05 3.83-2.05 1.59 0 4.08.91 4.08 4.67v6.54h-2.1v-6.32c0-1.77-.71-3.26-2.68-3.26-1.38 0-2.46.93-2.84 2.05-.09.24-.14.6-.14.92v6.61h-2.09v-8zm14.39 2.88c.04 2.7 1.85 3.81 3.96 3.81 1.51 0 2.43-.26 3.21-.56l.37 1.42c-.74.32-2.02.7-3.86.7-3.56 0-5.7-2.25-5.7-5.54 0-3.32 2.07-5.92 5.45-5.92 3.78 0 4.76 3.14 4.76 5.16 0 .42-.03.72-.07.93h-8.12zm6.16-1.43c.02-1.26-.54-3.23-2.9-3.23-2.15 0-3.06 1.84-3.23 3.23h6.13zm4.28 4.53c.63.38 1.74.78 2.79.78 1.54 0 2.25-.72 2.25-1.63 0-.96-.61-1.46-2.15-2.01-2.09-.72-3.08-1.8-3.08-3.11 0-1.77 1.52-3.21 4-3.21 1.18 0 2.19.3 2.84.67l-.52 1.45c-.45-.26-1.29-.65-2.38-.65-1.24 0-1.92.68-1.92 1.5 0 .91.68 1.31 2.2 1.87 2 .7 3.03 1.66 3.04 3.29 0 1.94-1.59 3.3-4.33 3.3-1.27 0-2.44-.31-3.25-.76l.51-1.49zm9.41 0c.63.38 1.74.78 2.79.78 1.54 0 2.25-.72 2.25-1.63 0-.96-.61-1.46-2.15-2.01-2.09-.72-3.08-1.8-3.08-3.11 0-1.77 1.52-3.21 4-3.21 1.18 0 2.19.3 2.84.67l-.52 1.45c-.45-.26-1.29-.65-2.38-.65-1.24 0-1.92.68-1.92 1.5 0 .91.68 1.31 2.2 1.87 2 .7 3.03 1.66 3.04 3.29 0 1.94-1.59 3.3-4.33 3.3-1.27 0-2.44-.31-3.25-.76l.51-1.49z"/><path class="st2" d="M15.4 44.16h9.94l-8.01 29.91H7.4zM11.49.86h9.06L9.56 41.92H.5"/><path class="st2" d="M72.69 21.44c0 4.25-1.29 8.21-3.51 11.48-3.69 5.45-9.92 9.04-17 9.04h-6.09l.23-.85 2.19-8.19h1.31c6.34 0 11.48-5.14 11.48-11.48 0-4.71-2.84-8.76-6.9-10.53-1.4-.61-2.95-.95-4.58-.95h-15.3l-.53 1.98-2.3 8.62-3.31 12.36h15.24l-1.68 6.3-.74 2.74-8.61 32.16h-9.73l8.61-32.16H16.03l2.42-9.04L24.6 9.96 27.02.92h25.17c1.63 0 3.21.19 4.73.56C62 2.67 66.35 5.76 69.18 9.96c2.22 3.27 3.51 7.23 3.51 11.48z"/></svg>