<?xml version="1.0" encoding="utf-8"?>
<!-- Generator: Adobe Illustrator 27.3.1, SVG Export Plug-In . SVG Version: 6.00 Build 0)  -->
<svg version="1.1" id="Warstwa_1" xmlns="http://www.w3.org/2000/svg" xmlns:xlink="http://www.w3.org/1999/xlink" x="0px" y="0px"
	 viewBox="0 0 249.28 85.89" style="enable-background:new 0 0 249.28 85.89;" xml:space="preserve">
<style type="text/css">
	.st0{opacity:0.92;}
	.st1{fill:#FFFFFF;}
	.st2{fill:#31A3C3;}
</style>
<g>
	<g class="st0">
		<path class="st1" d="M73.48,62.01c0,8.86-6.79,12.74-13.14,12.74c-7.17,0-12.7-4.73-12.7-12.32c0-8.01,5.81-12.69,13.12-12.69
			C68.35,49.74,73.48,54.73,73.48,62.01z M52.53,62.29c0,5.25,3.32,9.2,8.01,9.2c4.61,0,8.05-3.9,8.05-9.33
			c0-4.05-2.25-9.17-7.96-9.17C54.98,53,52.53,57.75,52.53,62.29z"/>
		<path class="st1" d="M81.43,50.28l3.55,12.14c0.76,2.67,1.43,5.17,1.96,7.63h0.13c0.59-2.41,1.46-5.01,2.37-7.6l4.32-12.18h4.04
			l4.11,11.96c0.94,2.84,1.72,5.37,2.33,7.81h0.13c0.48-2.42,1.19-4.94,2.05-7.77l3.77-12h4.74L106.4,74.2h-4.36l-4.02-11.42
			c-0.96-2.68-1.7-5.08-2.34-7.89h-0.11c-0.67,2.89-1.49,5.37-2.42,7.93L88.9,74.2h-4.39l-7.96-23.92H81.43z"/>
		<path class="st1" d="M122.45,63.03c0.09,5.88,4.22,8.31,9.04,8.31c3.44,0,5.54-0.56,7.32-1.23l0.84,3.09
			c-1.68,0.7-4.62,1.53-8.81,1.53c-8.12,0-13-4.9-13-12.07c0-7.25,4.72-12.91,12.43-12.91c8.62,0,10.87,6.85,10.87,11.25
			c0,0.91-0.06,1.57-0.16,2.04H122.45z M136.51,59.9c0.05-2.74-1.24-7.04-6.63-7.04c-4.9,0-6.99,4.02-7.38,7.04H136.51z"/>
		<path class="st1" d="M147.12,57.73c0-2.83-0.08-5.23-0.22-7.45h4.21l0.18,4.69h0.17c1.23-3.21,4.15-5.24,7.36-5.24
			c0.52,0,0.9,0.03,1.34,0.12v4.09c-0.49-0.09-0.97-0.13-1.63-0.13c-3.39,0-5.78,2.31-6.43,5.57c-0.12,0.61-0.19,1.32-0.19,2.03
			V74.2h-4.78V57.73z"/>
	</g>
</g>
<g>
	<g>
		<path class="st1" d="M188.92,73.19c-1.69,0.81-5.17,1.64-9.6,1.64c-10.23,0-17.9-6.13-17.9-17.42c0-10.79,7.68-18.04,18.95-18.04
			c4.48,0,7.38,0.9,8.61,1.51l-1.15,3.62c-1.76-0.79-4.29-1.42-7.3-1.42c-8.53,0-14.16,5.16-14.16,14.19
			c0,8.41,5.12,13.79,13.91,13.79c2.88,0,5.79-0.55,7.69-1.41L188.92,73.19z"/>
		<path class="st1" d="M200.47,42.64c0,1.53-1.13,2.79-3.01,2.79c-1.71,0-2.86-1.26-2.86-2.79c0-1.54,1.21-2.79,2.95-2.79
			C199.31,39.85,200.46,41.07,200.47,42.64z M195.18,74.29V49.62h4.71v24.68H195.18z"/>
		<path class="st1" d="M214,42.51v7.1h6.81v3.4H214v13.3c0,3.07,0.93,4.81,3.58,4.81c1.23,0,2.12-0.14,2.75-0.33l0.22,3.41
			c-0.92,0.34-2.39,0.62-4.23,0.62c-2.18,0-3.99-0.68-5.11-1.9c-1.31-1.36-1.84-3.54-1.84-6.44V53.02h-4.04v-3.4h4.04v-5.95
			L214,42.51z"/>
		<path class="st1" d="M228.4,49.62l5.69,14.58c0.61,1.63,1.25,3.57,1.68,5.04h0.13c0.46-1.45,1.04-3.34,1.66-5.13l5.15-14.49h5.03
			l-7.13,17.58c-3.38,8.49-5.7,12.8-8.92,15.48c-2.34,1.92-4.65,2.68-5.81,2.88l-1.18-3.75c1.19-0.36,2.73-1.06,4.15-2.19
			c1.28-0.98,2.86-2.72,3.96-5c0.24-0.47,0.37-0.8,0.37-1.08c0-0.25-0.08-0.61-0.33-1.15l-9.61-22.76H228.4z"/>
	</g>
</g>
<polygon class="st2" points="17.4,44.25 27.34,44.25 19.33,74.16 9.4,74.16 "/>
<polyline class="st2" points="13.49,0.95 22.55,0.95 11.56,42.01 2.5,42.01 "/>
<path class="st2" d="M74.69,21.52c0,4.25-1.29,8.21-3.51,11.48c-3.69,5.45-9.92,9.04-17,9.04h-6.09l0.23-0.85L50.51,33h1.31
	c6.34,0,11.48-5.14,11.48-11.48c0-4.71-2.84-8.76-6.9-10.53c-1.4-0.61-2.95-0.95-4.58-0.95h-15.3l-0.53,1.98l-2.3,8.62L30.38,33
	h15.24l-1.68,6.3l-0.74,2.74L34.59,74.2h-9.73l8.61-32.16H18.03L20.45,33l6.15-22.96L29.02,1h25.17c1.63,0,3.21,0.19,4.73,0.56
	c5.08,1.19,9.43,4.28,12.26,8.48C73.4,13.31,74.69,17.27,74.69,21.52z"/>
</svg>
