<?xml version="1.0" encoding="utf-8"?>
<!-- Generator: Adobe Illustrator 27.3.1, SVG Export Plug-In . SVG Version: 6.00 Build 0)  -->
<svg version="1.1" id="Warstwa_1" xmlns="http://www.w3.org/2000/svg" xmlns:xlink="http://www.w3.org/1999/xlink" x="0px" y="0px"
	 viewBox="0 0 246.28 107.89" style="enable-background:new 0 0 246.28 107.89;" xml:space="preserve">
<style type="text/css">
	.st0{opacity:0.92;}
	.st1{fill:#FFFFFF;}
	.st2{fill:#31A3C3;}
</style>
<g>
	<g class="st0">
		<path class="st1" d="M71.48,61.92c0,8.86-6.79,12.74-13.14,12.74c-7.17,0-12.7-4.73-12.7-12.32c0-8.01,5.81-12.69,13.12-12.69
			C66.35,49.65,71.48,54.64,71.48,61.92z M50.53,62.2c0,5.25,3.32,9.2,8.01,9.2c4.61,0,8.05-3.9,8.05-9.33
			c0-4.05-2.25-9.17-7.96-9.17C52.98,52.91,50.53,57.67,50.53,62.2z"/>
		<path class="st1" d="M79.43,50.19l3.55,12.14c0.76,2.67,1.43,5.17,1.96,7.63h0.13c0.59-2.41,1.46-5.01,2.37-7.6l4.32-12.18h4.04
			l4.11,11.96c0.94,2.84,1.72,5.37,2.33,7.81h0.13c0.48-2.42,1.19-4.94,2.05-7.77l3.77-12h4.74l-8.53,23.92h-4.36L96.02,62.7
			c-0.96-2.68-1.7-5.08-2.34-7.89h-0.11c-0.67,2.89-1.49,5.37-2.42,7.93L86.9,74.12h-4.39l-7.96-23.92H79.43z"/>
		<path class="st1" d="M120.45,62.94c0.09,5.88,4.22,8.31,9.04,8.31c3.44,0,5.54-0.56,7.32-1.23l0.84,3.09
			c-1.68,0.7-4.62,1.53-8.81,1.53c-8.12,0-13-4.9-13-12.07c0-7.25,4.72-12.91,12.43-12.91c8.62,0,10.87,6.85,10.87,11.25
			c0,0.91-0.06,1.57-0.16,2.04H120.45z M134.51,59.81c0.05-2.74-1.24-7.04-6.63-7.04c-4.9,0-6.99,4.02-7.38,7.04H134.51z"/>
		<path class="st1" d="M145.12,57.64c0-2.83-0.08-5.23-0.22-7.45h4.21l0.18,4.69h0.17c1.23-3.21,4.15-5.24,7.36-5.24
			c0.52,0,0.9,0.03,1.34,0.12v4.09c-0.49-0.09-0.97-0.13-1.63-0.13c-3.39,0-5.78,2.31-6.43,5.57c-0.12,0.61-0.19,1.32-0.19,2.03
			v12.78h-4.78V57.64z"/>
	</g>
</g>
<g>
	<g>
		<path class="st1" d="M186.92,73.1c-1.69,0.81-5.17,1.64-9.6,1.64c-10.23,0-17.9-6.13-17.9-17.42c0-10.79,7.68-18.04,18.95-18.04
			c4.48,0,7.38,0.9,8.61,1.51l-1.15,3.62c-1.76-0.79-4.29-1.42-7.3-1.42c-8.53,0-14.16,5.16-14.16,14.19
			c0,8.41,5.12,13.79,13.91,13.79c2.88,0,5.79-0.55,7.69-1.41L186.92,73.1z"/>
		<path class="st1" d="M198.47,42.55c0,1.53-1.13,2.79-3.01,2.79c-1.71,0-2.86-1.26-2.86-2.79c0-1.54,1.21-2.79,2.95-2.79
			C197.31,39.76,198.46,40.98,198.47,42.55z M193.18,74.2V49.53h4.71V74.2H193.18z"/>
		<path class="st1" d="M212,42.42v7.1h6.81v3.4H212v13.3c0,3.07,0.93,4.81,3.58,4.81c1.23,0,2.12-0.14,2.75-0.33l0.22,3.41
			c-0.92,0.34-2.39,0.62-4.23,0.62c-2.18,0-3.99-0.68-5.11-1.9c-1.31-1.36-1.84-3.54-1.84-6.44V52.93h-4.04v-3.4h4.04v-5.94
			L212,42.42z"/>
		<path class="st1" d="M226.39,49.53l5.69,14.59c0.61,1.63,1.25,3.57,1.68,5.04h0.13c0.46-1.45,1.04-3.34,1.66-5.13l5.15-14.49h5.03
			l-7.13,17.58c-3.38,8.49-5.7,12.8-8.92,15.48c-2.34,1.92-4.65,2.68-5.81,2.88l-1.18-3.75c1.19-0.36,2.73-1.06,4.15-2.19
			c1.28-0.98,2.86-2.72,3.96-5c0.24-0.47,0.37-0.8,0.37-1.08c0-0.25-0.08-0.61-0.33-1.15l-9.61-22.76H226.39z"/>
	</g>
</g>
<g>
	<g>
		<path class="st1" d="M134.1,91.25c-0.06,0.78-0.1,1.67-0.1,3v6.37c0,2.54-0.55,4.06-1.65,5.02c-1.14,0.99-2.76,1.32-4.22,1.32
			c-1.4,0-2.92-0.31-3.87-0.9l0.53-1.53c0.77,0.46,1.96,0.88,3.41,0.88c2.15,0,3.73-1.07,3.73-3.84v-1.22h-0.05
			c-0.63,1.03-1.9,1.85-3.68,1.85c-2.89,0-4.94-2.33-4.94-5.36c0-3.72,2.55-5.81,5.23-5.81c2.01,0,3.1,0.98,3.61,1.89h0.05
			l0.09-1.64H134.1z M131.91,95.57c0-0.33-0.03-0.62-0.12-0.89c-0.39-1.16-1.41-2.12-2.96-2.12c-2.01,0-3.45,1.61-3.45,4.16
			c0,2.15,1.17,3.95,3.43,3.95c1.31,0,2.48-0.78,2.93-2.06c0.11-0.32,0.17-0.71,0.17-1.06V95.57z"/>
		<path class="st1" d="M138.18,91.25l2.53,6.48c0.27,0.73,0.56,1.58,0.75,2.24h0.06c0.21-0.65,0.46-1.49,0.74-2.28l2.29-6.44h2.23
			l-3.17,7.81c-1.5,3.77-2.53,5.69-3.97,6.88c-1.04,0.85-2.07,1.19-2.58,1.28l-0.52-1.67c0.53-0.16,1.21-0.47,1.84-0.97
			c0.57-0.44,1.27-1.21,1.76-2.22c0.11-0.21,0.16-0.36,0.16-0.48c0-0.11-0.03-0.27-0.15-0.51l-4.27-10.11H138.18z"/>
		<path class="st1" d="M148.62,94.21c0-1.14-0.04-2.05-0.1-2.96h1.83l0.11,1.77h0.06c0.64-1.04,1.72-2.01,3.65-2.01
			c1.57,0,2.77,0.9,3.26,2.2h0.05c0.37-0.62,0.83-1.1,1.31-1.43c0.7-0.5,1.46-0.77,2.55-0.77c1.55,0,3.82,0.94,3.82,4.76v6.46h-2.06
			v-6.2c0-2.12-0.83-3.38-2.51-3.38c-1.21,0-2.13,0.83-2.5,1.79c-0.1,0.29-0.17,0.65-0.17,1v6.79h-2.05v-6.58c0-1.75-0.82-3-2.41-3
			c-1.31,0-2.28,0.99-2.62,1.99c-0.1,0.29-0.16,0.64-0.16,0.98v6.61h-2.06V94.21z"/>
	</g>
</g>
<g>
	<g>
		<path class="st1" d="M178.7,102.22c-0.46-0.44-0.88-0.87-1.51-1.49c-1.4,1.21-2.94,1.74-4.71,1.74c-3.13,0-4.96-2-4.96-4.29
			c0-2.08,1.32-3.5,3.15-4.46l0-0.07c-0.83-0.99-1.34-2.11-1.34-3.19c0-1.87,1.43-3.77,4.1-3.77c2.01,0,3.57,1.26,3.57,3.25
			c0,1.6-0.99,2.87-3.54,4.08l0,0.08c1.37,1.5,2.9,3.16,3.93,4.25c0.74-1.07,1.24-2.54,1.55-4.46h1.91c-0.43,2.4-1.12,4.3-2.32,5.64
			c0.87,0.88,1.7,1.73,2.67,2.71H178.7z M176.15,99.59c-0.96-0.99-2.75-2.86-4.53-4.81c-0.88,0.53-2.08,1.49-2.08,3.1
			c0,1.76,1.35,3.09,3.29,3.09C174.23,100.97,175.38,100.39,176.15,99.59z M171.25,90.27c0,1.1,0.54,1.94,1.23,2.75
			c1.64-0.88,2.68-1.7,2.68-2.99c0-0.95-0.56-1.98-1.88-1.98C171.95,88.05,171.25,89.1,171.25,90.27z"/>
	</g>
</g>
<g>
	<g>
		<path class="st1" d="M183.81,102.47v-9.46h-1.62V91.5h1.62v-0.61c0-2.89,1.8-4.77,5.06-4.77c1.09,0,2.35,0.32,2.95,0.73
			l-0.59,1.51c-0.52-0.33-1.42-0.63-2.45-0.63c-2.22,0-2.88,1.48-2.88,3.24v0.54h6.74v10.97h-2.1v-9.46h-4.63v9.46H183.81z"/>
		<path class="st1" d="M198.58,88.35v3.16h3.03v1.51h-3.03v5.91c0,1.37,0.42,2.14,1.59,2.14c0.54,0,0.94-0.06,1.22-0.14l0.1,1.52
			c-0.41,0.15-1.06,0.27-1.88,0.27c-0.97,0-1.77-0.3-2.27-0.84c-0.58-0.6-0.82-1.57-0.82-2.86v-5.99h-1.79V91.5h1.79v-2.64
			L198.58,88.35z"/>
		<path class="st1" d="M203.91,94.46c0-1.14-0.04-2.05-0.1-2.96h1.86l0.12,1.8h0.06c0.57-1.03,1.92-2.05,3.83-2.05
			c1.59,0,4.08,0.91,4.08,4.67v6.54h-2.1v-6.32c0-1.77-0.71-3.26-2.68-3.26c-1.38,0-2.46,0.93-2.84,2.05
			c-0.09,0.24-0.14,0.6-0.14,0.92v6.61h-2.09V94.46z"/>
		<path class="st1" d="M218.3,97.34c0.04,2.7,1.85,3.81,3.96,3.81c1.51,0,2.43-0.26,3.21-0.56l0.37,1.42
			c-0.74,0.32-2.02,0.7-3.86,0.7c-3.56,0-5.7-2.25-5.7-5.54c0-3.32,2.07-5.92,5.45-5.92c3.78,0,4.76,3.14,4.76,5.16
			c0,0.42-0.03,0.72-0.07,0.93H218.3z M224.46,95.91c0.02-1.26-0.54-3.23-2.9-3.23c-2.15,0-3.06,1.84-3.23,3.23H224.46z"/>
		<path class="st1" d="M228.74,100.44c0.63,0.38,1.74,0.78,2.79,0.78c1.54,0,2.25-0.72,2.25-1.63c0-0.96-0.61-1.46-2.15-2.01
			c-2.09-0.72-3.08-1.8-3.08-3.11c0-1.77,1.52-3.21,4-3.21c1.18,0,2.19,0.3,2.84,0.67l-0.52,1.45c-0.45-0.26-1.29-0.65-2.38-0.65
			c-1.24,0-1.92,0.68-1.92,1.5c0,0.91,0.68,1.31,2.2,1.87c2,0.7,3.03,1.66,3.04,3.29c0,1.94-1.59,3.3-4.33,3.3
			c-1.27,0-2.44-0.31-3.25-0.76L228.74,100.44z"/>
		<path class="st1" d="M238.15,100.44c0.63,0.38,1.74,0.78,2.79,0.78c1.54,0,2.25-0.72,2.25-1.63c0-0.96-0.61-1.46-2.15-2.01
			c-2.09-0.72-3.08-1.8-3.08-3.11c0-1.77,1.52-3.21,4-3.21c1.18,0,2.19,0.3,2.84,0.67l-0.52,1.45c-0.45-0.26-1.29-0.65-2.38-0.65
			c-1.24,0-1.92,0.68-1.92,1.5c0,0.91,0.68,1.31,2.2,1.87c2,0.7,3.03,1.66,3.04,3.29c0,1.94-1.59,3.3-4.33,3.3
			c-1.27,0-2.44-0.31-3.25-0.76L238.15,100.44z"/>
	</g>
</g>
<polygon class="st2" points="15.4,44.16 25.34,44.16 17.33,74.07 7.4,74.07 "/>
<polyline class="st2" points="11.49,0.86 20.55,0.86 9.56,41.92 0.5,41.92 "/>
<path class="st2" d="M72.69,21.44c0,4.25-1.29,8.21-3.51,11.48c-3.69,5.45-9.92,9.04-17,9.04h-6.09l0.23-0.85l2.19-8.19h1.31
	c6.34,0,11.48-5.14,11.48-11.48c0-4.71-2.84-8.76-6.9-10.53c-1.4-0.61-2.95-0.95-4.58-0.95h-15.3l-0.53,1.98l-2.3,8.62l-3.31,12.36
	h15.24l-1.68,6.3l-0.74,2.74l-8.61,32.16h-9.73l8.61-32.16H16.03l2.42-9.04L24.6,9.96l2.42-9.04h25.17c1.63,0,3.21,0.19,4.73,0.56
	C62,2.67,66.35,5.76,69.18,9.96C71.4,13.23,72.69,17.19,72.69,21.44z"/>
</svg>
