<?xml version="1.0" encoding="utf-8"?>
<!-- Generator: Adobe Illustrator 27.3.1, SVG Export Plug-In . SVG Version: 6.00 Build 0)  -->
<svg version="1.1" id="Warstwa_1" xmlns="http://www.w3.org/2000/svg" xmlns:xlink="http://www.w3.org/1999/xlink" x="0px" y="0px"
	 viewBox="0 0 50 50" style="enable-background:new 0 0 50 50;" xml:space="preserve">
<style type="text/css">
	.st0{fill:#FFFFFF;}
</style>
<path class="st0" d="M25,3C12.86,3,3,12.86,3,25c0,11.02,8.13,20.14,18.71,21.73l1.15,0.17V29.57h-5.2v-3.52h5.2v-4.67
	c0-2.88,0.69-4.77,1.83-5.96s2.83-1.79,5.18-1.79c1.88,0,2.61,0.11,3.31,0.2v2.88h-2.45c-1.39,0-2.53,0.77-3.12,1.81
	c-0.59,1.03-0.78,2.26-0.78,3.52v4.02h6.12l-0.54,3.52h-5.58v17.37l1.13-0.15C38.71,45.32,47,36.13,47,25C47,12.86,37.14,3,25,3z
	 M25,5c11.06,0,20,8.94,20,20c0,9.73-6.96,17.73-16.16,19.53V31.56h5.29l1.16-7.52h-6.46v-2.02c0-1.04,0.19-1.97,0.51-2.53
	c0.32-0.56,0.63-0.8,1.38-0.8h4.45v-6.69l-0.87-0.12c-0.6-0.08-1.97-0.27-4.44-0.27c-2.7,0-5.02,0.74-6.62,2.4
	c-1.6,1.67-2.39,4.15-2.39,7.35v2.67h-5.2v7.52h5.2v12.9C11.82,42.55,5,34.62,5,25C5,13.94,13.94,5,25,5z"/>
</svg>
